HIERARCHY
ROOT Hips
{
	OFFSET 0.000000 0.000000 0.000000
	CHANNELS 6 Xposition Yposition Zposition Xrotation Yrotation Zrotation
	JOINT LeftUpLeg_virtual
	{
		OFFSET 0.000000 0.000000 0.000000
		CHANNELS 3 Xrotation Yrotation Zrotation
		JOINT LeftUpLeg
		{
			OFFSET 10.205400 -3.823500 0.155100
			CHANNELS 3 Xrotation Yrotation Zrotation
			JOINT LeftLeg
			{
				OFFSET 0.708757 -12.982077 0.567790
				CHANNELS 3 Xrotation Yrotation Zrotation
				JOINT LeftFoot
				{
					OFFSET -0.708756 -10.717838 -2.184338
					CHANNELS 3 Xrotation Yrotation Zrotation
					JOINT LeftToeBase
					{
						OFFSET 0.108149 -7.191104 7.560241
						CHANNELS 3 Xrotation Yrotation Zrotation
						JOINT LeftToe_End
						{
							OFFSET 0.070230 0.081724 4.490308
							CHANNELS 3 Xrotation Yrotation Zrotation
							End Site
							{
								OFFSET 0 0 0
							}
						}
					}
				}
			}
		}
	}
	JOINT RightUpLeg_virtual
	{
		OFFSET 0.000000 0.000000 0.000000
		CHANNELS 3 Xrotation Yrotation Zrotation
		JOINT RightUpLeg
		{
			OFFSET -10.205400 -3.823500 0.005500
			CHANNELS 3 Xrotation Yrotation Zrotation
			JOINT RightLeg
			{
				OFFSET -0.708756 -12.982134 0.610632
				CHANNELS 3 Xrotation Yrotation Zrotation
				JOINT RightFoot
				{
					OFFSET 0.708754 -10.717769 -1.945823
					CHANNELS 3 Xrotation Yrotation Zrotation
					JOINT RightToeBase
					{
						OFFSET -0.108140 -7.191069 7.372968
						CHANNELS 3 Xrotation Yrotation Zrotation
						JOINT RightToe_End
						{
							OFFSET -0.070227 0.081735 4.479403
							CHANNELS 3 Xrotation Yrotation Zrotation
							End Site
							{
								OFFSET 0 0 0
							}
						}
					}
				}
			}
		}
	}
	JOINT Spine_virtual
	{
		OFFSET 0.000000 0.000000 0.000000
		CHANNELS 3 Xrotation Yrotation Zrotation
		JOINT Spine
		{
			OFFSET 0.000000 6.876099 0.125700
			CHANNELS 3 Xrotation Yrotation Zrotation
			JOINT Spine1
			{
				OFFSET 0.000000 5.730043 0.104720
				CHANNELS 3 Xrotation Yrotation Zrotation
				JOINT Spine1_split
				{
					OFFSET 0.000000 5.730043 0.104720
					CHANNELS 3 Xrotation Yrotation Zrotation
					JOINT Spine2
					{
						OFFSET 0.000000 5.730043 0.104720
						CHANNELS 3 Xrotation Yrotation Zrotation
						JOINT Neck_virtual
						{
							OFFSET 0.000000 0.000000 0.000000
							CHANNELS 3 Xrotation Yrotation Zrotation
							JOINT Neck
							{
								OFFSET 0.000000 10.314075 0.188496
								CHANNELS 3 Xrotation Yrotation Zrotation
								JOINT Head
								{
									OFFSET 0.000000 7.643700 -2.377400
									CHANNELS 3 Xrotation Yrotation Zrotation
									JOINT HeadTop_End
									{
										OFFSET 0.000000 43.788605 -13.619600
										CHANNELS 3 Xrotation Yrotation Zrotation
										End Site
										{
											OFFSET 0 0 0
										}
									}
								}
							}
						}
						JOINT LeftShoulder_virtual
						{
							OFFSET 0.000000 0.000000 0.000000
							CHANNELS 3 Xrotation Yrotation Zrotation
							JOINT LeftShoulder
							{
								OFFSET 2.196100 4.412489 0.087492
								CHANNELS 3 Xrotation Yrotation Zrotation
								JOINT LeftShoulder_split
								{
									OFFSET 2.196100 4.412489 0.087492
									CHANNELS 3 Xrotation Yrotation Zrotation
									JOINT LeftArm
									{
										OFFSET 8.771219 -2.981674 -0.026999
										CHANNELS 3 Xrotation Yrotation Zrotation
										JOINT LeftForeArm
										{
											OFFSET 8.512804 0.000000 -0.000000
											CHANNELS 3 Xrotation Yrotation Zrotation
											JOINT LeftHand
											{
												OFFSET 18.484802 0.000000 -0.000000
												CHANNELS 3 Xrotation Yrotation Zrotation
												End Site
												{
													OFFSET 0 0 0
												}
											}
										}
									}
								}
							}
						}
						JOINT RightShoulder_virtual
						{
							OFFSET 0.000000 0.000000 0.000000
							CHANNELS 3 Xrotation Yrotation Zrotation
							JOINT RightShoulder
							{
								OFFSET -2.196100 4.412496 0.070690
								CHANNELS 3 Xrotation Yrotation Zrotation
								JOINT RightShoulder_split
								{
									OFFSET -2.196100 4.412496 0.070690
									CHANNELS 3 Xrotation Yrotation Zrotation
									JOINT RightArm
									{
										OFFSET -8.771282 -2.981682 -0.094208
										CHANNELS 3 Xrotation Yrotation Zrotation
										JOINT RightForeArm
										{
											OFFSET -8.494598 0.000000 0.000000
											CHANNELS 3 Xrotation Yrotation Zrotation
											JOINT RightHand
											{
												OFFSET -18.483803 0.000000 0.000001
												CHANNELS 3 Xrotation Yrotation Zrotation
												End Site
												{
													OFFSET 0 0 0
												}
											}
										}
									}
								}
							}
						}
					}
				}
			}
		}
	}
}
MOTION
Frames: 4
Frame Time: 0.03333333
-0.464712 27.638451 -3.293653 0.000000 0.000000 0.000000 5.274394 -22.572916 7.124404 -61.935889 13.002602 38.814620 49.144703 -29.497033 2.288140 8.767425 -3.875034 -23.865658 0.706134 -6.137677 0.080892 0.000000 0.000000 0.000000 2.356974 -17.483923 6.501211 -21.633875 0.688528 -32.308554 54.546765 13.337636 -4.304571 -32.082184 -20.805642 47.845687 3.551705 0.313893 -12.890734 0.000000 0.000000 0.000000 0.829190 -6.599232 5.868379 13.840563 10.509715 -0.585556 11.910297 4.493840 -4.667414 0.172416 -1.542586 0.444729 0.000000 0.000000 0.000000 10.652423 5.981568 -2.644295 -30.807882 36.842518 37.131272 -20.934180 10.813261 8.736633 0.000000 0.000000 0.000000 4.185170 2.783139 -2.636717 -2.562523 -5.114616 9.866615 2.779431 -3.043378 -1.307321 -25.323106 21.207196 -58.509354 -2.871084 -56.771419 1.678823 0.000000 0.000000 0.000000 2.741021 1.656211 -1.499414 -7.124967 -1.869897 -2.201879 -23.362840 0.149986 2.400626 3.941565 28.549013 43.274719 -25.072902 38.743234 13.983280 0.000000 0.000000 0.000000 
-0.447404 27.710453 -3.801228 0.000000 0.000000 0.000000 5.500588 -23.100755 7.209208 -61.862096 13.387405 39.195744 48.613622 -29.728214 1.809857 8.147208 -2.767841 -22.885216 1.579868 -6.220843 0.076830 0.000000 0.000000 0.000000 2.352978 -17.436063 6.485373 -22.591329 1.330333 -32.213249 54.757207 13.194921 -3.863018 -31.965856 -20.624583 45.843011 5.337001 0.260374 -12.237161 0.000000 0.000000 0.000000 0.653312 -7.440181 5.967379 13.742430 10.290628 -0.882519 12.132351 4.212668 -4.647777 0.118416 -1.484995 0.416630 0.000000 0.000000 0.000000 10.463099 5.799450 -2.591245 -31.291484 37.180323 37.201602 -20.804889 12.721379 7.847357 0.000000 0.000000 0.000000 3.961518 2.653676 -2.519136 -2.633987 -4.738212 9.887644 1.502032 -3.390961 -1.187999 -24.574362 21.762875 -57.611573 -2.908411 -55.222226 1.904459 0.000000 0.000000 0.000000 2.607715 1.452407 -1.499913 -6.769543 -1.096515 -2.006726 -22.901431 0.297019 2.510047 1.529039 27.674593 45.854748 -25.229643 38.981167 14.311850 0.000000 0.000000 0.000000 
-0.371559 27.770710 -4.318506 0.000000 0.000000 0.000000 5.766937 -25.373021 7.552300 -60.771451 14.256744 39.743436 47.709237 -29.637072 1.728400 7.028895 -0.403465 -24.246726 2.114407 -6.289998 -0.333112 0.000000 0.000000 0.000000 2.565006 -20.324879 6.788116 -25.725043 3.400761 -31.599802 55.007970 13.521448 -3.737719 -29.964743 -18.717683 44.347872 5.762875 0.031543 -12.471212 0.000000 0.000000 0.000000 0.979138 -10.194825 6.197174 13.655233 9.787168 -1.324766 12.363796 3.778415 -4.602222 0.102334 -1.494070 0.390454 0.000000 0.000000 0.000000 10.368858 5.462470 -2.540503 -31.113697 38.241017 36.925932 -21.636644 17.156969 7.614058 0.000000 0.000000 0.000000 3.797499 2.406417 -2.491050 -2.631153 -3.918734 9.449831 0.265293 -4.125126 -1.657111 -23.893299 22.568873 -56.293272 -0.422864 -53.141604 4.355116 0.000000 0.000000 0.000000 2.575176 1.153493 -1.506723 -6.279099 -0.517698 -1.787239 -22.572764 -0.584623 1.503590 -1.342492 27.809025 48.156167 -25.819054 40.049644 15.422258 0.000000 0.000000 0.000000 
-0.335324 27.839609 -4.803713 0.000000 0.000000 0.000000 6.194732 -29.301372 8.202622 -58.507148 15.753261 40.356555 46.481480 -28.928214 1.854927 5.903659 3.151658 -27.202702 2.284589 -6.368100 -1.042478 0.000000 0.000000 0.000000 3.225559 -25.401001 7.452988 -30.453180 6.571614 -30.094131 55.125453 14.139286 -3.931382 -26.737117 -15.374836 42.696503 5.090909 -0.419610 -13.502247 0.000000 0.000000 0.000000 1.858314 -14.539084 6.652996 13.515659 9.056615 -1.838022 12.553740 3.183993 -4.549363 0.057490 -1.447846 0.376725 0.000000 0.000000 0.000000 10.413133 4.978734 -2.518562 -30.311307 39.881546 36.296581 -23.414537 23.687808 8.194160 0.000000 0.000000 0.000000 3.702908 2.029656 -2.585442 -2.516386 -2.724992 8.604535 -0.839107 -5.047897 -2.659121 -23.096802 23.641421 -55.112110 3.863272 -50.863220 8.213405 0.000000 0.000000 0.000000 2.584294 0.749197 -1.527761 -5.611146 -0.116243 -1.596941 -22.360545 -1.925999 -0.014504 -4.878433 28.967754 49.818222 -26.629115 41.685536 17.147415 0.000000 0.000000 0.000000 
